<svg width="1680px" height="502px" viewBox="0 0 1680 502" version="1.1" xmlns:xlink="http://www.w3.org/1999/xlink" xmlns="http://www.w3.org/2000/svg">
  <defs>
    <linearGradient x1="0" y1="0.5" x2="1" y2="0.5" id="gradient_1">
      <stop offset="0" stop-color="#AFE424"/>
      <stop offset="1" stop-color="#5DADE2"/>
    </linearGradient>
    <rect width="1680" height="502" id="artboard_1"/>
    <clipPath id="clip_1">
      <use xlink:href="#artboard_1" clip-rule="evenodd"/>
    </clipPath>
  </defs>
  <g id="Group-Symbol" clip-path="url(#clip_1)">
    <use xlink:href="#artboard_1" stroke="none" fill="none"/>
    <g id="Group">
      <g id="Group-11">
        <path d="M0 310.791C0 310.791 580.763 321.843 984 310.791C1387.24 299.74 1680 4.72733e-12 1680 4.72733e-12L1680 320L0 320L0 310.791Z" id="Rectangle" fill="url(#gradient_1)" fill-opacity="0.4" stroke="none"/>
        <path d="M0 199.831C0 199.831 580.763 205.835 984 194.831C1387.24 183.828 1680 3.6634e-12 1680 3.6634e-12L1680 204L0 204L0 199.831Z" transform="translate(0 116)" id="Rectangle" fill="url(#gradient_1)" fill-opacity="0.4" stroke="none"/>
        <path d="M0 97.8182C0 97.8182 580.763 102.837 984 91.8182C1387.24 80.799 1680 1.62872e-12 1680 1.62872e-12L1680 101L0 101L0 97.8182Z" transform="translate(0 219)" id="Rectangle" fill="url(#gradient_1)" fill-opacity="0.4" stroke="none"/>
        <path d="M0 49.5C0 49.5 580.763 55.801 984 45C1387.24 34.199 1680 2.11031e-12 1680 2.11031e-12L1680 54L0 54L0 49.5Z" transform="translate(0 266)" id="Rectangle" fill="url(#gradient_1)" fill-opacity="0.7" stroke="none"/>
      </g>
    </g>
    <g id="Group-11" transform="matrix(-1 0 0 -1 1680 502)">
      <path d="M0 176.763C0 176.763 580.763 183.048 984 176.763C1387.24 170.477 1680 2.68867e-12 1680 2.68867e-12L1680 182L0 182L0 176.763Z" id="Rectangle" fill="url(#gradient_1)" fill-opacity="0.4" stroke="none"/>
      <path d="M0 109.831C0 109.831 580.763 116.034 984 109.831C1387.24 103.629 1680 2.06515e-12 1680 2.06515e-12L1680 115L0 115L0 109.831Z" transform="translate(0 67)" id="Rectangle" fill="url(#gradient_1)" fill-opacity="0.4" stroke="none"/>
      <path d="M0 53.6364C0 53.6364 580.763 60.0733 984 53.6364C1387.24 47.1994 1680 9.51433e-13 1680 9.51433e-13L1680 59L0 59L0 53.6364Z" transform="translate(0 123)" id="Rectangle" fill="url(#gradient_1)" fill-opacity="0.4" stroke="none"/>
      <path d="M0 27.5C0 27.5 580.763 34.1006 984 27.5C1387.24 20.8994 1680 1.28964e-12 1680 1.28964e-12L1680 33L0 33L0 27.5Z" transform="translate(0 149)" id="Rectangle" fill="url(#gradient_1)" fill-opacity="0.7" stroke="none"/>
    </g>
  </g>
</svg>