<?xml version="1.0" encoding="utf-8"?>
<!-- Generator: Adobe Illustrator 19.2.1, SVG Export Plug-In . SVG Version: 6.00 Build 0)  -->
<svg version="1.1" id="Le_Journal_du_Centre" xmlns="http://www.w3.org/2000/svg" xmlns:xlink="http://www.w3.org/1999/xlink"
	 x="0px" y="0px" viewBox="0 0 448.8 108.8" style="enable-background:new 0 0 448.8 108.8;" xml:space="preserve">
<style type="text/css">
	.st0{fill:#BD2E18;}
</style>
<g>
	<polygon class="st0" points="16.4,30.9 16.4,24.5 7.7,24.5 7.7,0.9 0.1,0.9 0.1,30.9 	"/>
	<polygon class="st0" points="40.7,30.9 40.7,25.1 29.1,25.1 29.1,18.3 39.2,18.3 39.2,13 29.1,13 29.1,6.7 39.9,6.7 39.9,0.9 
		21.4,0.9 21.4,30.9 	"/>
	<path class="st0" d="M69.6,0.9H62v17.8c0,2.4,0.7,6.5-3.3,6.5c-1.1,0-2.3-0.3-3.4-0.6v6c2.2,0.7,4,1.1,6.4,1.1
		c7.6,0,7.9-5.6,7.9-10.8V0.9z"/>
	<path class="st0" d="M94,15.8c0,3.3-0.6,9.7-5.8,9.7c-5.2,0-5.7-6.4-5.7-9.7c0-3.3,0.7-9.5,5.7-9.5C93.2,6.3,94,12.5,94,15.8
		 M101.6,15.8C101.6,8.1,98.4,0,88.2,0C77.8,0,74.8,7.9,74.8,15.8c0,7.7,2.9,16.1,13.4,16.1C98.8,31.8,101.6,23.6,101.6,15.8"/>
	<path class="st0" d="M130.3,0.9h-7.6V19c0,2.7,0,6.4-4.1,6.4c-4.2,0-4.1-3.7-4.1-6.4V0.9h-7.7v17.7c0,3,0.2,6.2,2,8.8
		c2.1,3.1,5.8,4.4,9.8,4.4c3.3,0,6.3-0.9,8.6-3.2c2.8-2.7,3.1-6.6,3.1-10.1V0.9z"/>
	<path class="st0" d="M151.1,10.8c0,3.1-1.5,4.3-5,4.3h-2.8V6.6h3C149.9,6.6,151.1,7.7,151.1,10.8 M159.9,30.9l-7.1-12
		c4.7-1.3,5.8-4.5,5.8-8.6c0-2.7-0.6-5.4-2.9-7.3c-2.3-1.9-5.1-2.2-8.1-2.2h-12v30h7.6V19.4h2.3c1.8,3.8,3.7,7.7,5.6,11.5H159.9z"/>
	<path class="st0" d="M190.4,30.9v-30h-7.5l0.2,12.3c0,3.2,0.4,6.5,0.9,9.7h-0.2c-1-3-2-6-3.4-8.9l-6.5-13.1h-8.6v30h7.5l-0.1-13.1
		c-0.1-3.2-0.5-6.4-1-9.5h0.3c1,3.2,1.9,6.4,3.5,9.5l6.4,13.1H190.4z"/>
	<path class="st0" d="M212.7,20.2h-6.4c1.1-4.7,2.3-9.5,3.1-14.3h0.2C210.4,10.7,211.6,15.4,212.7,20.2 M223.7,30.9l-9-30h-10.2
		l-9,30h8l1.5-5.6h8.7l1.5,5.6H223.7z"/>
	<polygon class="st0" points="244.9,30.9 244.9,24.5 236.2,24.5 236.2,0.9 228.6,0.9 228.6,30.9 	"/>
</g>
<path class="st0" d="M38.8,73.3c0,5.4-0.6,12.5-4.2,17.1c-3.1,3.8-6.8,4.6-11.9,4.6h-8.3V52h7.7c4.1,0,7.4,0.4,10.6,3
	C37.6,59.2,38.8,67.6,38.8,73.3 M53.3,73.3c0-8.6-2.2-19.6-9.1-26.2c-6.4-5.9-13.6-6.9-22.6-6.9H0v66.7h22.7
	c7.3,0,14.2-0.8,19.9-5.1C51.5,95.2,53.3,82.8,53.3,73.3"/>
<path class="st0" d="M111.1,79V40.2H96.8v40.2c0,6.8,0.2,16.4-10.3,16.4C75.8,96.8,76,87.1,76,80.3V40.2H61.7v38.9
	c0,6.8,0,13.8,3.9,19.9c4.4,7,12,9.8,20.9,9.8c7.3,0,13.6-2.1,18.4-7.1C111,95.5,111.1,86.8,111.1,79"/>
<path class="st0" d="M183,105.3V91.5c-4.8,2.8-9.5,5-15.5,5c-14.2,0-16.7-13.1-16.7-23c0-9.6,2.8-23.1,16.7-23.1
	c5,0,9.1,1.7,13.4,3.9V41.6c-5.1-1.9-10.3-3-15.8-3c-21.7,0-28.9,18.8-28.9,34.9c0,9.1,1.9,18.8,8.4,26.2c5.8,6.7,13.3,8.8,22.6,8.8
	C172.9,108.5,178.1,107.6,183,105.3"/>
<polygon class="st0" points="232.6,106.9 232.6,95.7 205.8,95.7 205.8,78.1 228.9,78.1 228.9,67.8 205.8,67.8 205.8,51.3 
	230.5,51.3 230.5,40.2 191.5,40.2 191.5,106.9 "/>
<path class="st0" d="M292.5,106.9V40.2h-14.2l0.2,31c0.1,6.6,0.9,13.2,1.7,19.8h-0.5c-1.8-5.4-3.5-11-6.1-16.1l-17.8-34.7h-16v66.7
	H254l-0.2-32.1c0-6.7-0.9-13.3-1.8-19.9h0.5c1.8,6,3.6,12.2,6.6,17.8l17.6,34.2H292.5z"/>
<polygon class="st0" points="344.4,52.2 344.4,40.2 299.2,40.2 299.2,52.2 314.7,52.2 314.7,106.9 329,106.9 329,52.2 "/>
<path class="st0" d="M384.9,61.4c0,7.8-3.6,10.4-12.4,10.4h-6.7V51.1h7.4C381.9,51.1,384.9,53.7,384.9,61.4 M401.5,106.9L386,79.6
	c10.5-2.9,13.3-9.9,13.3-18.8c0-5.9-1.3-11.8-6.3-16c-5-4.1-11-4.6-17.5-4.6h-24v66.7h14.3V80.5h6.5c4.2,8.9,8.6,17.6,13,26.4H401.5
	z"/>
<polygon class="st0" points="448.8,106.9 448.8,95.7 422.1,95.7 422.1,78.1 445.2,78.1 445.2,67.8 422.1,67.8 422.1,51.3 
	446.8,51.3 446.8,40.2 407.8,40.2 407.8,106.9 "/>
</svg>
